<svg xmlns="http://www.w3.org/2000/svg" viewBox="0 0 245 76" width="245" height="76" preserveAspectRatio="xMidYMid meet" style="width: 100%; height: 100%; transform: translate3d(0px, 0px, 0px);"><defs><clipPath id="__lottie_element_2"><rect width="245" height="76" x="0" y="0"></rect></clipPath><clipPath id="__lottie_element_4"><path d="M0,0 L245,0 L245,76 L0,76z"></path></clipPath><clipPath id="__lottie_element_8"><path d="M0,0 L245,0 L245,76 L0,76z"></path></clipPath><mask id="__lottie_element_11" mask-type="alpha"><g transform="matrix(1,0,0,1,0,0)" opacity="1" style="display: block;"><path fill="url(#__lottie_element_14)" fill-opacity="1" d=" M38.72999954223633,0 C38.72999954223633,0 12.079999923706055,75.26000213623047 12.079999923706055,75.26000213623047 C12.079999923706055,75.26000213623047 0,75.26000213623047 0,75.26000213623047 C0,75.26000213623047 26.649999618530273,0 26.649999618530273,0 C26.649999618530273,0 38.72999954223633,0 38.72999954223633,0 C38.72999954223633,0 38.72999954223633,0 38.72999954223633,0z"></path></g></mask><linearGradient id="__lottie_element_14" spreadMethod="pad" gradientUnits="userSpaceOnUse" x1="-25.469999313354492" y1="-13.119999885559082" x2="-76.47000122070312" y2="85.87999725341797"><stop offset="0%" stop-color="rgb(255,168,83)"></stop><stop offset="100%" stop-color="rgb(91,212,243)"></stop></linearGradient><linearGradient id="__lottie_element_18" spreadMethod="pad" gradientUnits="userSpaceOnUse" x1="70.48780059814453" y1="-0.0000012321199847065145" x2="18.903900146484375" y2="99.85240173339844"><stop offset="0%" stop-color="rgb(255,168,83)"></stop><stop offset="100%" stop-color="rgb(91,212,243)"></stop></linearGradient><mask id="__lottie_element_19" mask-type="alpha"><g transform="matrix(1,0,0,1,0,0)" opacity="1" style="display: block;"><path fill="url(#__lottie_element_22)" fill-opacity="1" d=" M38.72999954223633,0 C38.72999954223633,0 12.079999923706055,75.26000213623047 12.079999923706055,75.26000213623047 C12.079999923706055,75.26000213623047 0,75.26000213623047 0,75.26000213623047 C0,75.26000213623047 26.649999618530273,0 26.649999618530273,0 C26.649999618530273,0 38.72999954223633,0 38.72999954223633,0 C38.72999954223633,0 38.72999954223633,0 38.72999954223633,0z"></path></g></mask><linearGradient id="__lottie_element_22" spreadMethod="pad" gradientUnits="userSpaceOnUse" x1="-25.469999313354492" y1="-13.119999885559082" x2="-76.47000122070312" y2="85.87999725341797"><stop offset="0%" stop-color="rgb(255,168,83)"></stop><stop offset="100%" stop-color="rgb(91,212,243)"></stop></linearGradient><linearGradient id="__lottie_element_26" spreadMethod="pad" gradientUnits="userSpaceOnUse" x1="70.48780059814453" y1="-0.0000012321199847065145" x2="18.903900146484375" y2="99.85240173339844"><stop offset="0%" stop-color="rgb(255,168,83)"></stop><stop offset="100%" stop-color="rgb(91,212,243)"></stop></linearGradient><mask id="__lottie_element_27" mask-type="alpha"><g transform="matrix(1,0,0,1,0,0)" opacity="1" style="display: block;"><path fill="url(#__lottie_element_30)" fill-opacity="1" d=" M38.72999954223633,0 C38.72999954223633,0 12.079999923706055,75.26000213623047 12.079999923706055,75.26000213623047 C12.079999923706055,75.26000213623047 0,75.26000213623047 0,75.26000213623047 C0,75.26000213623047 26.649999618530273,0 26.649999618530273,0 C26.649999618530273,0 38.72999954223633,0 38.72999954223633,0 C38.72999954223633,0 38.72999954223633,0 38.72999954223633,0z"></path></g></mask><linearGradient id="__lottie_element_30" spreadMethod="pad" gradientUnits="userSpaceOnUse" x1="-25.469999313354492" y1="-13.119999885559082" x2="-76.47000122070312" y2="85.87999725341797"><stop offset="0%" stop-color="rgb(255,168,83)"></stop><stop offset="100%" stop-color="rgb(91,212,243)"></stop></linearGradient><linearGradient id="__lottie_element_34" spreadMethod="pad" gradientUnits="userSpaceOnUse" x1="70.48780059814453" y1="-0.0000012321199847065145" x2="18.903900146484375" y2="99.85240173339844"><stop offset="0%" stop-color="rgb(255,168,83)"></stop><stop offset="100%" stop-color="rgb(91,212,243)"></stop></linearGradient></defs><g clip-path="url(#__lottie_element_2)"><g clip-path="url(#__lottie_element_4)" transform="matrix(1,0,0,1,0,0)" opacity="1" style="display: block;"><g transform="matrix(1,0,0,1,0,0)" opacity="1" style="display: block;"></g><g transform="matrix(1,0,0,1,31.10000228881836,29.049999237060547)" opacity="1" style="display: block;"><path fill="rgb(0,0,0)" fill-opacity="1" d=" M9.859999656677246,44.939998626708984 C7.090000152587891,43.75 4.670000076293945,41.869998931884766 2.8299999237060547,39.47999954223633 C1.1399999856948853,37.279998779296875 0.15000000596046448,34.61000061035156 0,31.84000015258789 C0,31.84000015258789 11.579999923706055,31.84000015258789 11.579999923706055,31.84000015258789 C11.6899995803833,32.70000076293945 11.979999542236328,33.540000915527344 12.420000076293945,34.290000915527344 C12.859999656677246,35.040000915527344 13.449999809265137,35.689998626708984 14.15999984741211,36.20000076293945 C15.779999732971191,37.369998931884766 17.760000228881836,37.97999954223633 19.760000228881836,37.91999816894531 C21.56999969482422,38.029998779296875 23.360000610351562,37.560001373291016 24.889999389648438,36.599998474121094 C25.459999084472656,36.2400016784668 25.93000030517578,35.7599983215332 26.25,35.16999816894531 C26.56999969482422,34.58000183105469 26.75,33.91999816894531 26.75,33.25 C26.760000228881836,32.529998779296875 26.549999237060547,31.829999923706055 26.149999618530273,31.229999542236328 C25.75,30.6299991607666 25.18000030517578,30.170000076293945 24.510000228881836,29.899999618530273 C22.190000534057617,28.8799991607666 19.780000686645508,28.06999969482422 17.31999969482422,27.469999313354492 C14.479999542236328,26.81999969482422 11.6899995803833,25.969999313354492 8.979999542236328,24.93000030517578 C6.820000171661377,24.049999237060547 4.909999847412109,22.68000030517578 3.390000104904175,20.90999984741211 C1.75,18.84000015258789 0.9100000262260437,16.239999771118164 1.0499999523162842,13.600000381469727 C1.0399999618530273,11.130000114440918 1.809999942779541,8.720000267028809 3.240000009536743,6.710000038146973 C4.829999923706055,4.53000020980835 6.989999771118164,2.8299999237060547 9.489999771118164,1.7999999523162842 C12.520000457763672,0.5400000214576721 15.770000457763672,-0.07000000029802322 19.049999237060547,0.009999999776482582 C24.479999542236328,0.009999999776482582 28.809999465942383,1.3700000047683716 32.029998779296875,4.079999923706055 C33.63999938964844,5.429999828338623 34.939998626708984,7.099999904632568 35.86000061035156,8.989999771118164 C36.779998779296875,10.880000114440918 37.29999923706055,12.930000305175781 37.380001068115234,15.029999732971191 C37.380001068115234,15.029999732971191 26.3700008392334,15.029999732971191 26.3700008392334,15.029999732971191 C26.31999969482422,14.199999809265137 26.100000381469727,13.380000114440918 25.709999084472656,12.640000343322754 C25.31999969482422,11.899999618530273 24.780000686645508,11.25 24.1299991607666,10.729999542236328 C22.579999923706055,9.59000015258789 20.68000030517578,9.020000457763672 18.75,9.119999885559082 C17.06999969482422,9.010000228881836 15.399999618530273,9.399999618530273 13.9399995803833,10.239999771118164 C13.40999984741211,10.579999923706055 12.970000267028809,11.050000190734863 12.670000076293945,11.609999656677246 C12.369999885559082,12.170000076293945 12.229999542236328,12.789999961853027 12.239999771118164,13.420000076293945 C12.229999542236328,14.15999984741211 12.430000305175781,14.880000114440918 12.829999923706055,15.5 C13.229999542236328,16.1200008392334 13.8100004196167,16.610000610351562 14.479999542236328,16.90999984741211 C16.770000457763672,17.969999313354492 19.15999984741211,18.770000457763672 21.6200008392334,19.31999969482422 C24.389999389648438,19.979999542236328 27.110000610351562,20.84000015258789 29.760000228881836,21.8700008392334 C31.93000030517578,22.75 33.84000015258789,24.139999389648438 35.349998474121094,25.93000030517578 C36.9900016784668,27.989999771118164 37.849998474121094,30.56999969482422 37.77000045776367,33.20000076293945 C37.79999923706055,35.720001220703125 37.040000915527344,38.189998626708984 35.599998474121094,40.2599983215332 C34.02000045776367,42.439998626708984 31.860000610351562,44.130001068115234 29.360000610351562,45.13999938964844 C26.360000610351562,46.38999938964844 23.1299991607666,47.0099983215332 19.8799991607666,46.959999084472656 C16.43000030517578,47.0099983215332 13.020000457763672,46.31999969482422 9.859999656677246,44.939998626708984 C9.859999656677246,44.939998626708984 9.859999656677246,44.939998626708984 9.859999656677246,44.939998626708984z"></path></g><g transform="matrix(1,0,0,1,78.30999755859375,14.530000686645508)" opacity="1" style="display: block;"><path fill="rgb(0,0,0)" fill-opacity="1" d=" M11.520000457763672,0 C11.520000457763672,0 11.520000457763672,60.72999954223633 11.520000457763672,60.72999954223633 C11.520000457763672,60.72999954223633 0,60.72999954223633 0,60.72999954223633 C0,60.72999954223633 0,0 0,0 C0,0 11.520000457763672,0 11.520000457763672,0 C11.520000457763672,0 11.520000457763672,0 11.520000457763672,0z"></path></g><g transform="matrix(1,0,0,1,98.25,29.059999465942383)" opacity="1" style="display: block;"><path fill="rgb(0,0,0)" fill-opacity="1" d=" M34.130001068115234,16.290000915527344 C33.099998474121094,14.369999885559082 31.549999237060547,12.779999732971191 29.649999618530273,11.699999809265137 C27.84000015258789,10.640000343322754 25.790000915527344,10.069999694824219 23.690000534057617,10.069999694824219 C21.610000610351562,10.050000190734863 19.56999969482422,10.59000015258789 17.770000457763672,11.619999885559082 C15.920000076293945,12.710000038146973 14.399999618530273,14.289999961853027 13.380000114440918,16.18000030517578 C12.210000038146973,18.360000610351562 11.630000114440918,20.809999465942383 11.699999809265137,23.280000686645508 C11.640000343322754,25.780000686645508 12.220000267028809,28.239999771118164 13.380000114440918,30.450000762939453 C14.40999984741211,32.400001525878906 15.949999809265137,34.040000915527344 17.850000381469727,35.16999816894531 C19.600000381469727,36.27000045776367 21.6200008392334,36.86000061035156 23.690000534057617,36.88999938964844 C25.799999237060547,36.900001525878906 27.8700008392334,36.349998474121094 29.690000534057617,35.290000915527344 C31.59000015258789,34.209999084472656 33.130001068115234,32.619998931884766 34.15999984741211,30.700000762939453 C35.29999923706055,28.469999313354492 35.86000061035156,25.979999542236328 35.77000045776367,23.479999542236328 C35.84000015258789,20.979999542236328 35.279998779296875,18.510000228881836 34.130001068115234,16.290000915527344 C34.130001068115234,16.290000915527344 34.130001068115234,16.290000915527344 34.130001068115234,16.290000915527344z M2.7200000286102295,11.079999923706055 C4.389999866485596,7.699999809265137 6.980000019073486,4.849999904632568 10.1899995803833,2.869999885559082 C13.369999885559082,0.949999988079071 17.030000686645508,-0.03999999910593033 20.739999771118164,0.009999999776482582 C23.850000381469727,-0.05999999865889549 26.93000030517578,0.6399999856948853 29.690000534057617,2.059999942779541 C32.09000015258789,3.299999952316284 34.18000030517578,5.070000171661377 35.810001373291016,7.230000019073486 C35.810001373291016,7.230000019073486 35.810001373291016,0.7400000095367432 35.810001373291016,0.7400000095367432 C35.810001373291016,0.7400000095367432 47.400001525878906,0.7400000095367432 47.400001525878906,0.7400000095367432 C47.400001525878906,0.7400000095367432 47.400001525878906,46.20000076293945 47.400001525878906,46.20000076293945 C47.400001525878906,46.20000076293945 35.77000045776367,46.20000076293945 35.77000045776367,46.20000076293945 C35.77000045776367,46.20000076293945 35.77000045776367,39.560001373291016 35.77000045776367,39.560001373291016 C34.18000030517578,41.779998779296875 32.08000183105469,43.599998474121094 29.649999618530273,44.849998474121094 C26.889999389648438,46.279998779296875 23.809999465942383,47 20.700000762939453,46.939998626708984 C17,46.97999954223633 13.369999885559082,45.959999084472656 10.229999542236328,43.9900016784668 C7.019999980926514,41.95000076293945 4.440000057220459,39.06999969482422 2.759999990463257,35.65999984741211 C0.8799999952316284,31.84000015258789 -0.07000000029802322,27.6299991607666 0.009999999776482582,23.3700008392334 C-0.10000000149011612,19.1200008392334 0.8399999737739563,14.899999618530273 2.7200000286102295,11.079999923706055 C2.7200000286102295,11.079999923706055 2.7200000286102295,11.079999923706055 2.7200000286102295,11.079999923706055z"></path></g><g transform="matrix(1,0,0,1,154.3800048828125,29.060001373291016)" opacity="1" style="display: block;"><path fill="rgb(0,0,0)" fill-opacity="1" d=" M9.869999885559082,44.939998626708984 C7.099999904632568,43.7400016784668 4.679999828338623,41.869998931884766 2.8399999141693115,39.47999954223633 C1.149999976158142,37.279998779296875 0.1599999964237213,34.61000061035156 0,31.84000015258789 C0,31.84000015258789 11.579999923706055,31.84000015258789 11.579999923706055,31.84000015258789 C11.6899995803833,32.709999084472656 11.970000267028809,33.540000915527344 12.420000076293945,34.290000915527344 C12.869999885559082,35.040000915527344 13.460000038146973,35.689998626708984 14.170000076293945,36.20000076293945 C15.789999961853027,37.380001068115234 17.770000457763672,37.97999954223633 19.770000457763672,37.91999816894531 C21.579999923706055,38.029998779296875 23.3700008392334,37.560001373291016 24.899999618530273,36.599998474121094 C25.469999313354492,36.2400016784668 25.940000534057617,35.7599983215332 26.260000228881836,35.16999816894531 C26.579999923706055,34.58000183105469 26.75,33.91999816894531 26.75,33.25 C26.760000228881836,32.529998779296875 26.549999237060547,31.829999923706055 26.149999618530273,31.229999542236328 C25.75,30.6299991607666 25.18000030517578,30.170000076293945 24.510000228881836,29.899999618530273 C22.190000534057617,28.8799991607666 19.780000686645508,28.06999969482422 17.31999969482422,27.469999313354492 C14.489999771118164,26.81999969482422 11.6899995803833,25.969999313354492 8.979999542236328,24.93000030517578 C6.820000171661377,24.059999465942383 4.900000095367432,22.68000030517578 3.390000104904175,20.90999984741211 C1.7699999809265137,18.84000015258789 0.9599999785423279,16.239999771118164 1.1200000047683716,13.619999885559082 C1.090000033378601,11.149999618530273 1.840000033378601,8.729999542236328 3.259999990463257,6.710000038146973 C4.849999904632568,4.53000020980835 7.010000228881836,2.8299999237060547 9.5,1.7999999523162842 C12.529999732971191,0.5400000214576721 15.789999961853027,-0.07000000029802322 19.06999969482422,0.009999999776482582 C24.479999542236328,0.009999999776482582 28.809999465942383,1.3700000047683716 32.04999923706055,4.079999923706055 C33.65999984741211,5.429999828338623 34.959999084472656,7.099999904632568 35.880001068115234,8.989999771118164 C36.79999923706055,10.880000114440918 37.31999969482422,12.930000305175781 37.38999938964844,15.029999732971191 C37.38999938964844,15.029999732971191 26.3799991607666,15.029999732971191 26.3799991607666,15.029999732971191 C26.329999923706055,14.199999809265137 26.110000610351562,13.380000114440918 25.719999313354492,12.640000343322754 C25.329999923706055,11.899999618530273 24.799999237060547,11.25 24.139999389648438,10.729999542236328 C22.59000015258789,9.59000015258789 20.690000534057617,9.020000457763672 18.760000228881836,9.119999885559082 C17.079999923706055,9.010000228881836 15.40999984741211,9.399999618530273 13.960000038146973,10.239999771118164 C13.430000305175781,10.579999923706055 13.010000228881836,11.050000190734863 12.720000267028809,11.609999656677246 C12.430000305175781,12.170000076293945 12.289999961853027,12.789999961853027 12.3100004196167,13.420000076293945 C12.289999961853027,14.15999984741211 12.489999771118164,14.899999618530273 12.890000343322754,15.529999732971191 C13.289999961853027,16.15999984741211 13.859999656677246,16.649999618530273 14.539999961853027,16.950000762939453 C16.829999923706055,18.010000228881836 19.229999542236328,18.81999969482422 21.690000534057617,19.3700008392334 C24.459999084472656,20.030000686645508 27.18000030517578,20.889999389648438 29.829999923706055,21.920000076293945 C32,22.799999237060547 33.90999984741211,24.18000030517578 35.41999816894531,25.969999313354492 C37.060001373291016,28.030000686645508 37.91999816894531,30.610000610351562 37.849998474121094,33.2400016784668 C37.880001068115234,35.77000045776367 37.11000061035156,38.22999954223633 35.65999984741211,40.29999923706055 C34.08000183105469,42.47999954223633 31.920000076293945,44.18000030517578 29.420000076293945,45.189998626708984 C26.399999618530273,46.43000030517578 23.15999984741211,47.029998779296875 19.889999389648438,46.959999084472656 C16.440000534057617,47.0099983215332 13.029999732971191,46.31999969482422 9.869999885559082,44.939998626708984 C9.869999885559082,44.939998626708984 9.869999885559082,44.939998626708984 9.869999885559082,44.939998626708984z"></path></g><g transform="matrix(1,0,0,1,201.6300048828125,14.530000686645508)" opacity="1" style="display: block;"><path fill="rgb(0,0,0)" fill-opacity="1" d=" M34.84000015258789,16.8700008392334 C37.54999923706055,18.389999389648438 39.75,20.690000534057617 41.13999938964844,23.469999313354492 C42.720001220703125,26.760000228881836 43.47999954223633,30.3799991607666 43.369998931884766,34.029998779296875 C43.369998931884766,34.029998779296875 43.369998931884766,60.72999954223633 43.369998931884766,60.72999954223633 C43.369998931884766,60.72999954223633 31.8700008392334,60.72999954223633 31.8700008392334,60.72999954223633 C31.8700008392334,60.72999954223633 31.8700008392334,35.61000061035156 31.8700008392334,35.61000061035156 C31.8700008392334,32 30.969999313354492,29.239999771118164 29.170000076293945,27.290000915527344 C28.219999313354492,26.299999237060547 27.059999465942383,25.530000686645508 25.780000686645508,25.030000686645508 C24.5,24.530000686645508 23.139999389648438,24.299999237060547 21.770000457763672,24.3700008392334 C20.389999389648438,24.299999237060547 19.010000228881836,24.530000686645508 17.719999313354492,25.030000686645508 C16.43000030517578,25.530000686645508 15.260000228881836,26.299999237060547 14.289999961853027,27.290000915527344 C12.460000038146973,29.239999771118164 11.529999732971191,32 11.529999732971191,35.61000061035156 C11.529999732971191,35.61000061035156 11.529999732971191,60.72999954223633 11.529999732971191,60.72999954223633 C11.529999732971191,60.72999954223633 0,60.72999954223633 0,60.72999954223633 C0,60.72999954223633 0,0 0,0 C0,0 11.5,0 11.5,0 C11.5,0 11.5,20.93000030517578 11.5,20.93000030517578 C13.050000190734863,18.90999984741211 15.09000015258789,17.309999465942383 17.420000076293945,16.290000915527344 C20,15.149999618530273 22.799999237060547,14.569999694824219 25.6299991607666,14.609999656677246 C28.84000015258789,14.550000190734863 32.02000045776367,15.329999923706055 34.84000015258789,16.8700008392334 C34.84000015258789,16.8700008392334 34.84000015258789,16.8700008392334 34.84000015258789,16.8700008392334z"></path></g><g clip-path="url(#__lottie_element_8)" transform="matrix(1,0,0,1,0,0)" opacity="1" style="display: block;"><g mask="url(#__lottie_element_27)" style="display: block;"><g transform="matrix(1,0,0,1,0,-150.41665649414062)" opacity="1"><path fill="url(#__lottie_element_34)" fill-opacity="1" d=" M0,0 C0,0 39,0 39,0 C39,0 39,76 39,76 C39,76 0,76 0,76 C0,76 0,0 0,0z"></path></g></g><g mask="url(#__lottie_element_19)" style="display: block;"><g transform="matrix(1,0,0,-1,0,1.5833320617675781)" opacity="1"><path fill="url(#__lottie_element_26)" fill-opacity="1" d=" M0,0 C0,0 39,0 39,0 C39,0 39,76 39,76 C39,76 0,76 0,76 C0,76 0,0 0,0z"></path></g></g><g mask="url(#__lottie_element_11)" style="display: block;"><g transform="matrix(1,0,0,1,0,1.5833320617675781)" opacity="1"><path fill="url(#__lottie_element_18)" fill-opacity="1" d=" M0,0 C0,0 39,0 39,0 C39,0 39,76 39,76 C39,76 0,76 0,76 C0,76 0,0 0,0z"></path></g></g></g></g></g></svg>